<?xml version="1.0" standalone="no"?>
<!DOCTYPE svg PUBLIC "-//W3C//DTD SVG 20010904//EN"
 "http://www.w3.org/TR/2001/REC-SVG-20010904/DTD/svg10.dtd">
<svg version="1.0" xmlns="http://www.w3.org/2000/svg"
 width="190.000000pt" height="190.000000pt" viewBox="0 0 190.000000 190.000000"
 preserveAspectRatio="xMidYMid meet">
<metadata>
Created by potrace 1.14, written by Peter Selinger 2001-2017
</metadata>
<g transform="translate(0.000000,190.000000) scale(0.100000,-0.100000)"
fill="#000000" stroke="none">
<path d="M750 1655 c-6 -8 -9 -18 -6 -24 3 -5 -1 -12 -9 -15 -13 -5 -13 -10 3
-38 79 -146 124 -183 185 -155 18 9 45 20 60 26 16 6 26 15 23 20 -3 5 1 11 9
15 8 3 15 12 15 19 0 8 18 19 41 26 22 7 48 21 57 32 9 10 31 22 49 25 35 7
46 24 15 24 -10 0 -22 3 -25 6 -4 4 -26 8 -49 9 -59 3 -213 14 -271 20 -27 3
-57 10 -67 15 -13 7 -21 5 -30 -5z"/>
<path d="M1091 1480 c-8 -4 -10 -13 -6 -21 5 -8 5 -11 0 -7 -4 4 -13 4 -19 -1
-6 -5 -76 -28 -156 -51 -220 -64 -234 -67 -255 -63 -11 2 -37 6 -57 9 -41 5
-40 8 -15 -61 10 -29 53 -74 71 -75 5 0 14 -8 21 -17 11 -14 15 -15 29 -4 22
18 35 10 25 -16 -5 -15 -20 -24 -46 -29 -21 -4 -87 -31 -148 -59 -91 -43 -118
-52 -157 -50 -44 2 -46 1 -37 -17 6 -10 8 -27 4 -37 -3 -10 1 -24 10 -31 8 -7
15 -18 15 -24 0 -6 15 -21 34 -33 l33 -21 31 20 c57 36 34 11 -51 -55 -74 -58
-84 -69 -84 -97 0 -35 50 -100 76 -100 9 0 27 17 40 38 14 20 38 49 54 65 42
38 29 43 -17 6 -75 -63 -46 -17 49 76 54 53 95 98 92 101 -3 3 -29 -12 -59
-33 -74 -54 -87 -61 -63 -32 11 13 26 28 33 32 16 11 16 40 0 31 -7 -3 16 21
52 55 36 34 56 59 45 55 -16 -5 -14 -2 5 12 14 10 28 23 32 28 5 8 8 7 8 -1 0
-7 -8 -17 -17 -22 -11 -6 -13 -11 -5 -11 8 0 10 -5 6 -12 -6 -10 -4 -10 8 0
17 14 19 7 5 -28 -3 -8 -24 -79 -46 -157 -50 -173 -106 -292 -166 -355 -25
-27 -45 -50 -45 -53 0 -3 -9 -14 -21 -26 -25 -25 -19 -35 13 -18 12 7 30 13
39 14 9 1 29 11 44 23 32 26 70 30 62 7 -10 -23 9 -26 29 -4 10 11 23 18 29
15 17 -6 47 50 40 74 -4 14 -2 20 8 20 10 0 13 7 10 20 -3 11 -1 20 5 20 6 0
8 9 5 20 -3 11 -9 20 -14 20 -7 0 -6 77 3 212 1 15 6 24 10 22 7 -4 12 32 11
73 -1 7 3 11 7 8 7 -4 18 32 35 115 0 3 11 36 24 74 28 83 57 116 103 117 45
1 76 5 120 17 29 8 54 6 110 -9 40 -11 78 -17 85 -15 7 3 15 1 18 -4 5 -8 30
-7 82 5 29 7 60 74 41 86 -29 18 -48 34 -48 40 0 3 -20 27 -45 52 -49 48 -113
81 -134 67z"/>
<path d="M1619 1228 c-1 -18 -2 -23 -54 -223 -25 -99 -59 -230 -75 -291 -34
-134 -55 -162 -115 -156 -22 2 -51 10 -64 19 -23 15 -24 17 -18 142 8 168 28
228 74 216 27 -6 30 9 7 32 -8 9 -13 22 -10 30 3 7 -1 16 -9 19 -8 4 -15 12
-15 19 0 16 -198 145 -222 145 -17 0 -78 -45 -165 -120 -17 -16 -45 -46 -61
-69 l-29 -41 4 48 c3 26 6 51 7 57 4 15 -24 39 -34 29 -9 -9 -57 -177 -66
-233 -3 -14 -12 -57 -20 -96 -30 -141 -54 -257 -54 -266 0 -5 11 -9 25 -9 17
0 29 -8 37 -24 6 -14 17 -27 24 -30 14 -5 15 6 16 107 1 21 17 42 78 97 53 48
83 68 94 64 9 -3 16 -10 16 -16 0 -5 4 -7 9 -4 5 3 14 -1 21 -9 7 -8 18 -15
24 -15 17 0 56 -43 56 -61 0 -8 -4 -19 -10 -25 -23 -23 76 -149 107 -137 7 3
13 -2 13 -10 0 -18 16 -24 85 -32 87 -10 149 -27 134 -36 -8 -5 -11 -9 -6 -10
32 -6 112 -32 121 -40 5 -4 18 1 29 11 11 11 33 22 48 25 39 9 44 17 58 105 4
25 13 56 20 68 9 17 11 42 6 85 -4 34 -8 105 -7 157 0 103 -3 107 -13 17 -11
-95 -22 -59 -31 98 -9 163 -9 193 -3 189 4 -2 9 8 12 23 5 26 4 27 -10 8 -13
-18 -14 -15 -9 38 5 61 1 71 -14 35 -7 -17 -8 -9 -4 30 3 28 3 52 0 52 -3 0
-6 -6 -7 -12z m-474 -215 c-3 -29 -8 -79 -11 -110 -5 -51 -12 -133 -14 -155 0
-14 -16 -9 -38 12 -12 11 -26 20 -32 20 -13 0 -13 17 0 25 21 13 70 124 62
142 -7 19 -32 29 -32 14 0 -6 -27 -42 -61 -80 -61 -71 -61 -71 -102 -65 -23 4
-46 10 -50 14 -21 19 113 185 207 258 l29 22 24 -21 c20 -20 22 -29 18 -76z
m-250 -264 c6 -6 -9 -27 -38 -57 l-48 -47 6 35 c14 89 15 90 43 84 15 -4 31
-11 37 -15z m170 -79 c3 -5 2 -10 -4 -10 -5 0 -13 5 -16 10 -3 6 -2 10 4 10 5
0 13 -4 16 -10z m-207 -47 c-21 -20 -40 -34 -44 -30 -13 13 43 62 76 66 2 1
-12 -16 -32 -36z"/>
<path d="M1641 1204 c0 -11 3 -14 6 -6 3 7 2 16 -1 19 -3 4 -6 -2 -5 -13z"/>
</g>
</svg>
